<svg xmlns="http://www.w3.org/2000/svg" width="6395" height="1080"><defs><linearGradient id="b" x1=".631" y1=".5" x2=".958" y2=".488" gradientUnits="objectBoundingBox"><stop offset="0" stop-color="#2e364a"/><stop offset="1" stop-color="#2c344a"/></linearGradient><clipPath id="a"><path data-name="Rectangle 73" transform="translate(-5391)" fill="#fff" d="M0 0h6395v1079H0z"/></clipPath></defs><g data-name="Web 1920 – 1" clip-path="url(#clip-Web_1920_1)"><g data-name="Mask Group 1" transform="translate(5391)" clip-path="url(#a)"><g data-name="Group 118"><path data-name="Path 142" d="M976.018-7.302S753.54 180.507 920.669 575.952c44.957 106.375 81.514 205.964 84.521 277 8.164 192.764-156.046 268.564-156.046 268.564l-653.53-26.8L179.349-22.751z" fill="#2d3750"/><path data-name="Union 6" d="M-2631.1 1081.8v-1.6h-5599.8V.022h5599.8V0h759.7s-187.845 197.448-91.626 488.844c49.167 148.9 96.309 256.289 104.683 362.118 7.979 100.852-57.98 201.711-168.644 254.286-65.858 31.29-144.552 42.382-223.028 42.383-191.185.001-381.085-65.831-381.085-65.831z" transform="translate(2840.191 -.323)" fill="url(#b)"/></g></g></g></svg>