<svg class="icon" viewBox="0 0 1024 1024" xmlns="http://www.w3.org/2000/svg" width="48" height="48"><defs><style/></defs><path d="M887.081 904.791a25.8 25.8 0 01-18.376-7.619L705.618 734.075l-4.163 3.369c-58.255 47.18-131.522 73.16-206.32 73.16-181.07 0-328.377-147.308-328.377-328.367 0-181.068 147.308-328.376 328.377-328.376 181.063 0 328.376 147.308 328.376 328.376 0 77.072-27.412 152.07-77.169 211.17l-3.522 4.173 162.719 162.744a25.846 25.846 0 017.639 18.432 26.081 26.081 0 01-26.051 26.045l-.046-.01zM495.13 205.957c-152.336 0-276.27 123.935-276.27 276.27 0 152.33 123.934 276.27 276.27 276.27 152.34 0 276.275-123.94 276.275-276.27 0-152.335-123.935-276.27-276.275-276.27z" fill="#fff"/><path d="M626.545 508.355h-262.83a26.127 26.127 0 010-52.255h262.83a26.127 26.127 0 010 52.255z" fill="#fff"/><path d="M495.13 639.77a26.127 26.127 0 01-26.128-26.128v-262.83a26.127 26.127 0 0152.255 0v262.835a26.127 26.127 0 01-26.127 26.123z" fill="#fff"/></svg>